<svg id="SvgjsSvg1011" xmlns="http://www.w3.org/2000/svg" version="1.1" xmlns:xlink="http://www.w3.org/1999/xlink" xmlns:svgjs="http://svgjs.com/svgjs" width="11" height="21" viewBox="0 0 11 21"><title>Rectangle 73</title><desc>Created with Avocode.</desc><defs id="SvgjsDefs1012"></defs><path id="SvgjsPath1013" d="M357.778 304.545L350.4003 296.0485C350.39987 296.048 350.39943 296.0475 350.399 296.04699999999997C349.889 295.46 349.889 294.50899999999996 350.399 293.92199999999997C350.3994 293.92154 350.39979 293.92107999999996 350.40019 293.92062999999996L357.778 285.42299999999994C358.28700000000003 284.83699999999993 359.113 284.83699999999993 359.622 285.42299999999994C360.132 286.00999999999993 360.132 286.96099999999996 359.622 287.5489999999999L353.16554 294.98455999999993L359.622 302.42099999999994C360.132 303.0079999999999 360.132 303.95899999999995 359.622 304.54499999999996C359.113 305.13199999999995 358.28700000000003 305.13199999999995 357.778 304.54499999999996Z " fill="#aeb4ba" fill-opacity="1" transform="matrix(1,0,0,1,-350,-284)"></path></svg>