<svg id="SvgjsSvg1008" xmlns="http://www.w3.org/2000/svg" version="1.1" xmlns:xlink="http://www.w3.org/1999/xlink" xmlns:svgjs="http://svgjs.com/svgjs" width="12" height="21" viewBox="0 0 12 21"><title>Rectangle 73</title><desc>Created with Avocode.</desc><defs id="SvgjsDefs1009"></defs><path id="SvgjsPath1010" d="M1199.23 285.455L1206.62787 293.95054999999996C1206.62858 293.95135999999997 1206.62929 293.95217999999994 1206.63 293.953C1207.14 294.53999999999996 1207.14 295.491 1206.63 296.078C1206.62983 296.0782 1206.62965 296.0784 1206.62948 296.0786L1199.23 304.576C1198.72 305.163 1197.89 305.163 1197.38 304.576C1196.8700000000001 303.99 1196.8700000000001 303.03900000000004 1197.38 302.452L1203.85489 295.0155L1197.38 287.57899999999995C1196.8700000000001 286.99299999999994 1196.8700000000001 286.04099999999994 1197.38 285.4549999999999C1197.89 284.86799999999994 1198.72 284.86799999999994 1199.23 285.4549999999999Z " fill="#aeb4ba" fill-opacity="1" transform="matrix(1,0,0,1,-1196,-285)"></path></svg>