<svg id="SvgjsSvg1017" xmlns="http://www.w3.org/2000/svg" version="1.1" xmlns:xlink="http://www.w3.org/1999/xlink" xmlns:svgjs="http://svgjs.com/svgjs" width="18" height="19" viewBox="0 0 18 19"><title>Shape 245</title><desc>Created with Avocode.</desc><defs id="SvgjsDefs1018"></defs><path id="SvgjsPath1019" d="M1088.88 218.318C1088.74 218.096 1088.5 217.93300000000002 1088.24 217.93300000000002L1075.6 217.347L1075.1599999999999 215.606C1075.06 215.242 1074.7599999999998 214.999 1074.3799999999999 214.999H1071.8C1071.36 214.999 1071 215.363 1071 215.808C1071 216.254 1071.36 216.618 1071.8 216.618H1073.76L1075.96 225.281L1075.42 227.547C1075.3600000000001 227.791 1075.42 228.054 1075.5600000000002 228.237C1075.7200000000003 228.438 1075.9400000000003 228.539 1076.18 228.539H1085.98C1086.42 228.539 1086.78 228.17499999999998 1086.78 227.731C1086.78 227.285 1086.42 226.92 1085.98 226.92H1077.22L1077.44 225.98899999999998L1085.44 225.605C1085.74 225.584 1086 225.402 1086.1200000000001 225.14L1088.92 219.06799999999998C1089.04 218.84499999999997 1089.02 218.56099999999998 1088.88 218.31799999999998ZM1075.2 230.483C1075.2 231.321 1075.8700000000001 232.001 1076.7 232.001C1077.53 232.001 1078.2 231.321 1078.2 230.483C1078.2 229.645 1077.53 228.965 1076.7 228.965C1075.8700000000001 228.965 1075.2 229.645 1075.2 230.483ZM1084.2 230.483C1084.2 231.321 1084.8700000000001 232.001 1085.7 232.001C1086.53 232.001 1087.2 231.321 1087.2 230.483C1087.2 229.645 1086.53 228.965 1085.7 228.965C1084.8700000000001 228.965 1084.2 229.645 1084.2 230.483Z " fill="#ffffff" fill-opacity="1" transform="matrix(1,0,0,1,-1071,-214)"></path></svg>