<svg id="SvgjsSvg1000" xmlns="http://www.w3.org/2000/svg" version="1.1" xmlns:xlink="http://www.w3.org/1999/xlink" xmlns:svgjs="http://svgjs.com/svgjs" width="17" height="18" viewBox="0 0 17 18"><title>Shape 8</title><desc>Created with Avocode.</desc><defs id="SvgjsDefs1001"></defs><path id="SvgjsPath1007" d="M927.515 61.2354C927.205 61.2354 926.952 61.4874 926.952 61.7973C926.952 62.1086 927.205 62.3599 927.515 62.3599C927.826 62.3599 928.078 62.1086 928.078 61.7973C928.078 61.4874 927.826 61.2354 927.515 61.2354ZM927.515 51.763C927.826 51.763 928.078 51.5102 928.078 51.1996C928.078 50.888299999999994 927.826 50.63699999999999 927.515 50.63699999999999C927.205 50.63699999999999 926.952 50.888299999999994 926.952 51.1996C926.952 51.5102 927.205 51.763 927.515 51.763ZM927.5 47.9995C922.805 47.9995 919 51.8052 919 56.4992C919 61.1946 922.805 64.9997 927.5 64.9997C932.194 64.9997 936 61.1946 936 56.4992C936 51.8052 932.194 47.9995 927.5 47.9995ZM927.5 62.9441C923.94 62.9441 921.055 60.059 921.055 56.4992C921.055 52.9401 923.9399999999999 50.054300000000005 927.5 50.054300000000005C931.059 50.054300000000005 933.945 52.94010000000001 933.945 56.4992C933.945 60.059000000000005 931.0590000000001 62.9441 927.5 62.9441ZM922.216 55.9359C921.905 55.9359 921.653 56.1879 921.653 56.4985C921.653 56.8099 921.905 57.0611 922.216 57.0611C922.527 57.0611 922.779 56.809900000000006 922.779 56.4985C922.779 56.1879 922.527 55.9359 922.216 55.9359ZM932.815 55.9359C932.504 55.9359 932.2520000000001 56.1879 932.2520000000001 56.4985C932.2520000000001 56.8099 932.504 57.0611 932.815 57.0611C933.125 57.0611 933.3770000000001 56.809900000000006 933.3770000000001 56.4985C933.3770000000001 56.1879 933.1250000000001 55.9359 932.815 55.9359ZM931.036 53.3509C931.286 53.6007 931.286 54.0069 931.036 54.2575C931.036 54.2575 927.9709999999999 57.3747 927.6089999999999 57.5489C927.295 57.6987 927.0439999999999 57.445100000000004 927.0439999999999 57.445100000000004L925.0379999999999 55.445100000000004C924.7879999999999 55.1953 924.7879999999999 54.7897 925.0379999999999 54.5399C925.2879999999999 54.2886 925.6939999999998 54.2886 925.9439999999998 54.5399L927.4429999999999 56.0373L930.1299999999999 53.3509C930.3799999999999 53.1011 930.7859999999998 53.1011 931.0359999999998 53.3509Z " fill="#78828c" fill-opacity="1" transform="matrix(1,0,0,1,-919,-47)"></path></svg>