<svg id="SvgjsSvg1029" xmlns="http://www.w3.org/2000/svg" version="1.1" xmlns:xlink="http://www.w3.org/1999/xlink" xmlns:svgjs="http://svgjs.com/svgjs" width="25" height="16" viewBox="0 0 25 16"><title>Shape 256</title><desc>Created with Avocode.</desc><defs id="SvgjsDefs1030"></defs><path id="SvgjsPath1031" d="M721.998 1042.96C721.9970000000001 1042.94 721.9970000000001 1042.93 721.9960000000001 1042.92C721.9950000000001 1042.92 721.9950000000001 1042.91 721.9940000000001 1042.91C721.9940000000001 1042.9 721.9930000000002 1042.89 721.9920000000002 1042.89C721.9910000000002 1042.88 721.9900000000002 1042.8700000000001 721.9880000000002 1042.8600000000001C721.9580000000002 1042.67 721.8710000000002 1042.4900000000002 721.7370000000002 1042.3500000000001C720.9710000000002 1041.41 720.0600000000002 1040.5800000000002 719.1330000000002 1039.8200000000002C717.1380000000001 1038.18 714.8560000000001 1036.8000000000002 712.3370000000001 1036.2500000000002C710.8810000000001 1035.9300000000003 709.4150000000001 1035.9200000000003 707.9520000000001 1036.1900000000003C706.6210000000001 1036.4400000000003 705.3370000000001 1036.9500000000003 704.1360000000001 1037.5800000000004C702.2570000000001 1038.5700000000004 700.5400000000001 1039.9400000000003 699.0440000000001 1041.4700000000005C698.7680000000001 1041.7500000000005 698.4920000000001 1042.0400000000004 698.2400000000001 1042.3500000000006C697.9050000000001 1042.7600000000007 697.9050000000001 1043.2400000000007 698.2400000000001 1043.6500000000005C699.0060000000001 1044.5900000000006 699.9170000000001 1045.4200000000005 700.8440000000002 1046.1800000000005C702.8400000000001 1047.8300000000006 705.1220000000002 1049.2000000000005 707.6410000000002 1049.7500000000005C709.0970000000002 1050.0700000000004 710.5620000000002 1050.0800000000004 712.0260000000002 1049.8100000000004C713.3570000000002 1049.5700000000004 714.6400000000002 1049.0600000000004 715.8410000000002 1048.4200000000003C717.7210000000002 1047.4300000000003 719.4380000000002 1046.0700000000004 720.9330000000002 1044.5300000000002C721.2100000000003 1044.2500000000002 721.4860000000002 1043.9600000000003 721.7370000000002 1043.65C721.8710000000002 1043.52 721.9590000000002 1043.3400000000001 721.9880000000002 1043.14H721.9890000000001C721.9900000000001 1043.13 721.9910000000001 1043.1200000000001 721.9920000000002 1043.1200000000001C721.9930000000002 1043.1100000000001 721.9940000000001 1043.1000000000001 721.9950000000002 1043.0900000000001C721.9960000000002 1043.0900000000001 721.9960000000002 1043.0800000000002 721.9960000000002 1043.0800000000002C721.9970000000002 1043.0700000000002 721.9980000000002 1043.0600000000002 721.9980000000002 1043.0500000000002C721.9990000000001 1043.0300000000002 721.9990000000001 1043.0200000000002 721.9990000000001 1043.0000000000002C721.9990000000001 1042.9900000000002 721.9990000000001 1042.9700000000003 721.9980000000002 1042.9600000000003ZM709.994 1047.77C707.443 1047.77 705.374 1045.6299999999999 705.374 1043C705.374 1040.37 707.443 1038.24 709.994 1038.24C712.546 1038.24 714.614 1040.3700000000001 714.614 1043C714.614 1045.63 712.546 1047.77 709.994 1047.77ZM708.465 1043C708.465 1043.87 709.149 1044.58 709.994 1044.58C710.839 1044.58 711.523 1043.87 711.523 1043C711.523 1042.13 710.839 1041.42 709.994 1041.42C709.149 1041.42 708.465 1042.13 708.465 1043Z " fill="#ffffff" fill-opacity="1" transform="matrix(1,0,0,1,-697,-1035)"></path></svg>