<svg id="SvgjsSvg1032" xmlns="http://www.w3.org/2000/svg" version="1.1" xmlns:xlink="http://www.w3.org/1999/xlink" xmlns:svgjs="http://svgjs.com/svgjs" width="37" height="44" viewBox="0 0 37 44"><title>Shape 251</title><desc>Created with Avocode.</desc><defs id="SvgjsDefs1033"></defs><path id="SvgjsPath1034" d="M196.308 1702C192.754 1702 189.885 1706.06 187.96599999999998 1709.84C186.046 1706.06 183.17799999999997 1702 179.62399999999997 1702C176.36599999999996 1702 173.72599999999997 1704.67 173.72599999999997 1707.97C173.72599999999997 1711.27 176.36599999999996 1713.94 179.62399999999997 1713.94C181.30699999999996 1713.94 183.96599999999998 1713.94 186.14199999999997 1713.94C186.14199999999997 1713.94 187.75599999999997 1713.94 189.78999999999996 1713.94C191.96599999999995 1713.94 194.62399999999997 1713.94 196.30799999999996 1713.94C199.56499999999997 1713.94 202.20599999999996 1711.27 202.20599999999996 1707.97C202.20599999999996 1704.67 199.56499999999997 1702 196.30799999999996 1702ZM179.624 1710.17C178.426 1710.17 177.451 1709.18 177.451 1707.97C177.451 1706.76 178.426 1705.77 179.624 1705.77C180.359 1705.77 181.966 1706.8 183.90699999999998 1710.17ZM196.308 1710.17H192.024C193.967 1706.8000000000002 195.573 1705.77 196.308 1705.77C197.506 1705.77 198.481 1706.76 198.481 1707.97C198.481 1709.18 197.506 1710.17 196.308 1710.17ZM203.525 1742.86V1729.03H192.971V1746H200.421C202.135 1746 203.525 1744.59 203.525 1742.86ZM172.484 1729.03V1742.86C172.484 1744.59 173.874 1746 175.58800000000002 1746H183.038V1729.03ZM170.001 1718.34V1724.6299999999999C170.001 1726.1499999999999 171.068 1727.4099999999999 172.484 1727.7099999999998V1727.7699999999998H183.038V1715.1999999999998H173.10500000000002C171.39100000000002 1715.1999999999998 170.001 1716.6 170.001 1718.34ZM202.904 1715.2H192.971V1727.77H203.525V1727.71C204.942 1727.41 206.008 1726.15 206.008 1724.63V1718.3400000000001C206.008 1716.6000000000001 204.619 1715.2 202.904 1715.2ZM184.28 1746H191.729V1715.2H184.28Z " fill="#ffffff" fill-opacity="1" transform="matrix(1,0,0,1,-170,-1702)"></path></svg>