<svg id="SvgjsSvg1014" xmlns="http://www.w3.org/2000/svg" version="1.1" xmlns:xlink="http://www.w3.org/1999/xlink" xmlns:svgjs="http://svgjs.com/svgjs" width="24" height="18" viewBox="0 0 24 18"><title>Rectangle 28</title><desc>Created with Avocode.</desc><defs id="SvgjsDefs1015"></defs><path id="SvgjsPath1016" d="M75 216H95C96.1046 216 97 216.895 97 218C97 219.105 96.1046 220 95 220H75C73.8955 220 73 219.105 73 218C73 216.895 73.8955 216 75 216ZM75 223H95C96.1046 223 97 223.895 97 225C97 226.105 96.1046 227 95 227H75C73.8955 227 73 226.105 73 225C73 223.895 73.8955 223 75 223ZM75 230H95C96.1046 230 97 230.895 97 232C97 233.105 96.1046 234 95 234H75C73.8955 234 73 233.105 73 232C73 230.895 73.8955 230 75 230Z " fill="#ffffff" fill-opacity="1" transform="matrix(1,0,0,1,-73,-216)"></path></svg>