<svg id="SvgjsSvg1011" xmlns="http://www.w3.org/2000/svg" version="1.1" xmlns:xlink="http://www.w3.org/1999/xlink" xmlns:svgjs="http://svgjs.com/svgjs" width="23" height="29" viewBox="0 0 23 29"><title>Shape 257</title><desc>Created with Avocode.</desc><defs id="SvgjsDefs1012"></defs><path id="SvgjsPath1013" d="M1029.08 152.089C1031 153.965 1033.56 154.998 1036.28 154.998C1037.8799999999999 154.998 1039.3799999999999 154.393 1040.5 153.29399999999998C1040.55 153.24399999999997 1040.6 153.18999999999997 1040.64 153.13L1042.8700000000001 149.493C1043.0800000000002 149.158 1043.0300000000002 148.72899999999998 1042.74 148.453L1038.27 144.088C1037.98 143.811 1037.54 143.759 1037.2 143.96L1034.06 145.79500000000002C1031.45 143.10100000000003 1029.52 139.83700000000002 1028.4299999999998 136.286L1031.6299999999999 134.554C1031.9799999999998 134.365 1032.1499999999999 133.968 1032.05 133.589L1030.4099999999999 127.626C1030.31 127.24900000000001 1029.9499999999998 126.985 1029.55 126.99600000000001L1025.2 127.06800000000001C1025.13 127.06800000000001 1025.06 127.07800000000002 1024.99 127.09600000000002C1023.45 127.49700000000001 1022.16 128.46 1021.37 129.80700000000002C1020.01 132.10500000000002 1019.65 134.78300000000002 1020.35 137.346C1021.88 142.91400000000002 1024.9 148.012 1029.08 152.089ZM1022.88 130.658C1023.43 129.736 1024.3 129.06799999999998 1025.35 128.768L1028.8999999999999 128.71L1030.1899999999998 133.389L1026.9799999999998 135.125C1026.6299999999999 135.315 1026.4599999999998 135.713 1026.5599999999997 136.09C1027.7399999999998 140.389 1030.0699999999997 144.327 1033.2999999999997 147.474C1033.5799999999997 147.75 1034.0199999999998 147.804 1034.3699999999997 147.60199999999998L1037.5099999999998 145.76199999999997L1041.0299999999997 149.18699999999998L1039.1999999999998 152.16C1038.4099999999999 152.893 1037.3799999999999 153.296 1036.2799999999997 153.296C1034.0299999999997 153.296 1031.9099999999999 152.439 1030.3099999999997 150.884C1026.3499999999997 147.01899999999998 1023.4899999999997 142.18599999999998 1022.0399999999997 136.90499999999997C1021.4499999999997 134.78099999999998 1021.7499999999998 132.56299999999996 1022.8799999999998 130.65799999999996Z " fill="#e30613" fill-opacity="1" transform="matrix(1,0,0,1,-1020,-126)"></path></svg>