<svg id="SvgjsSvg1008" xmlns="http://www.w3.org/2000/svg" version="1.1" xmlns:xlink="http://www.w3.org/1999/xlink" xmlns:svgjs="http://svgjs.com/svgjs" width="18" height="16" viewBox="0 0 18 16"><title>Shape 244</title><desc>Created with Avocode.</desc><defs id="SvgjsDefs1009"></defs><path id="SvgjsPath1010" d="M1093.15 59.2776C1093.15 58.1663 1093.0300000000002 57.4999 1093.0300000000002 57.4999C1093.0300000000002 57.4999 1094.4800000000002 55.4999 1094.5900000000001 52.7215C1094.5900000000001 52.2804 1094.8100000000002 49.147 1091.0300000000002 49.0054C1091.0300000000002 49.0039 1091.0300000000002 49.0016 1091.0300000000002 49.0001C1091.0200000000002 49.0001 1091.0100000000002 49.002300000000005 1091.0000000000002 49.002300000000005C1090.9900000000002 49.002300000000005 1090.9800000000002 49.0001 1090.9700000000003 49.0001C1090.9700000000003 49.0016 1090.9700000000003 49.0039 1090.9700000000003 49.0054C1087.1900000000003 49.147 1087.4000000000003 52.2804 1087.4000000000003 52.7215C1087.5200000000002 55.4999 1088.9700000000003 57.4999 1088.9700000000003 57.4999C1088.9700000000003 57.4999 1088.8500000000004 58.1663 1088.8500000000004 59.2776C1082.8400000000004 60.7217 1082.0000000000005 62.7224 1082.0000000000005 62.7224V64.9997H1090.9700000000005H1091.0300000000004H1100.0000000000005V62.72240000000001C1100.0000000000005 62.72240000000001 1099.1600000000005 60.721700000000006 1093.1500000000005 59.27760000000001Z " fill="#78828c" fill-opacity="1" transform="matrix(1,0,0,1,-1082,-49)"></path></svg>