<svg id="SvgjsSvg1026" xmlns="http://www.w3.org/2000/svg" version="1.1" xmlns:xlink="http://www.w3.org/1999/xlink" xmlns:svgjs="http://svgjs.com/svgjs" width="19" height="20" viewBox="0 0 19 20"><title>Shape 253</title><desc>Created with Avocode.</desc><defs id="SvgjsDefs1027"></defs><path id="SvgjsPath1028" d="M86.082 770.324L84.4656 772.9509999999999L81.52579999999999 771.7779999999999C81.44069999999999 771.7449999999999 81.35179999999998 771.728 81.26329999999999 771.728C81.12019999999998 771.728 80.97799999999998 771.7719999999999 80.85949999999998 771.857C80.66589999999998 771.9929999999999 80.56029999999998 772.216 80.57949999999998 772.447L80.83729999999998 775.501L77.79699999999998 776.175C77.55079999999998 776.2289999999999 77.35469999999998 776.41 77.28759999999998 776.645C77.22169999999998 776.881 77.29339999999998 777.133 77.47609999999999 777.302L79.63029999999999 779.283L77.19869999999999 781.671C77.01919999999998 781.846 76.95579999999998 782.104 77.03429999999999 782.34C77.11269999999999 782.576 77.32049999999998 782.748 77.573 782.7900000000001L80.7961 783.316L80.2787 786.8090000000001C80.2424 787.0600000000001 80.3567 787.3100000000001 80.5745 787.4530000000001C80.6901 787.5280000000001 80.8236 787.5660000000001 80.9583 787.5660000000001C81.0769 787.5660000000001 81.19539999999999 787.5370000000001 81.3022 787.4770000000001L84.3092 785.7950000000001L85.8926 788.6510000000001C86.0098 788.863 86.2397 788.998 86.4901 789.0000000000001H86.4971C86.7437 789.0000000000001 86.9723 788.8710000000001 87.0942 788.6630000000001L88.6889 785.9280000000001L91.5056 787.3250000000002C91.6036 787.3730000000002 91.7109 787.3970000000002 91.8173 787.3970000000002C91.9441 787.3970000000002 92.071 787.3620000000002 92.1823 787.2960000000002C92.38759999999999 787.1710000000002 92.5095 786.9520000000001 92.5045 786.7180000000002L92.4293 783.5650000000002L95.3896 783.2160000000001C95.6374 783.1870000000001 95.8485 783.0320000000002 95.94200000000001 782.8090000000001C96.03630000000001 782.5860000000001 95.9983 782.33 95.84320000000001 782.1440000000001L93.75070000000001 779.6140000000001L95.79060000000001 777.2470000000002C95.94700000000002 777.0640000000002 95.99170000000001 776.8150000000002 95.90700000000001 776.5930000000002C95.82310000000001 776.3700000000002 95.62240000000001 776.2090000000002 95.38170000000001 776.1660000000002L92.49980000000001 775.6790000000002L92.7206 772.5220000000002C92.7356 772.2950000000002 92.63130000000001 772.0770000000001 92.4435 771.9430000000002C92.3234 771.8570000000002 92.1803 771.8140000000002 92.0359 771.8140000000002C91.9524 771.8140000000002 91.8694 771.8280000000002 91.7893 771.8570000000002L88.73559999999999 772.9960000000002L87.27649999999998 770.3500000000003C87.16099999999999 770.1390000000002 86.93439999999998 770.0050000000002 86.68659999999998 769.9990000000003C86.43289999999999 770.0030000000003 86.20839999999998 770.1180000000003 86.08199999999998 770.3240000000003ZM89.5333 775.126C89.6147 775.126 89.6969 775.149 89.76989999999999 775.197C89.9673 775.327 90.02319999999999 775.593 89.89299999999999 775.79L84.69339999999998 783.68C84.61119999999998 783.805 84.47479999999999 783.8729999999999 84.33459999999998 783.8729999999999C84.25239999999998 783.8729999999999 84.17189999999998 783.8499999999999 84.09799999999998 783.8029999999999C83.90029999999999 783.6729999999999 83.84439999999998 783.4069999999999 83.97499999999998 783.2099999999999L89.17449999999998 775.3209999999999C89.25669999999998 775.194 89.39359999999998 775.1259999999999 89.53329999999998 775.1259999999999C89.53329999999998 775.1259999999999 89.45239999999998 775.1259999999999 89.53329999999998 775.1259999999999ZM84.3847 776.206C85.1533 776.206 85.7753 776.825 85.7753 777.591C85.7753 778.356 85.1533 778.976 84.3847 778.976C83.61699999999999 778.976 82.9953 778.356 82.9953 777.591C82.9953 776.825 83.617 776.206 84.3847 776.206C84.3847 776.206 83.61609999999999 776.206 84.3847 776.206ZM89.4829 780.023C90.2505 780.023 90.8743 780.643 90.8743 781.409C90.8743 782.174 90.2505 782.794 89.4829 782.794C88.7143 782.794 88.0918 782.174 88.0918 781.409C88.0918 780.643 88.71430000000001 780.023 89.4829 780.023C89.4829 780.023 88.7155 780.023 89.4829 780.023Z " fill="#db4032" fill-opacity="1" transform="matrix(1,0,0,1,-77,-769)"></path></svg>