<svg id="SvgjsSvg1035" xmlns="http://www.w3.org/2000/svg" version="1.1" xmlns:xlink="http://www.w3.org/1999/xlink" xmlns:svgjs="http://svgjs.com/svgjs" width="19" height="18" viewBox="0 0 19 18"><title>Ellipse 1</title><desc>Created with Avocode.</desc><defs id="SvgjsDefs1036"></defs><path id="SvgjsPath1037" d="M860.5 135C864.642 135 868 138.358 868 142.5C868 143.71274 867.71213 144.85828 867.20099 145.87199L870.682 149.353C871.463 150.13500000000002 871.463 151.401 870.682 152.181C869.9010000000001 152.96300000000002 868.634 152.96300000000002 867.8530000000001 152.181L864.5106400000001 148.83864C863.3506900000001 149.57413 861.9750600000001 150 860.5000000000001 150C856.3580000000001 150 853.0000000000001 146.642 853.0000000000001 142.5C853.0000000000001 138.358 856.3580000000001 135 860.5000000000001 135ZM857 142.5C857 144.433 858.567 146 860.5 146C862.433 146 864 144.433 864 142.5C864 140.567 862.433 139 860.5 139C858.567 139 857 140.567 857 142.5Z " fill="#78828c" fill-opacity="1" transform="matrix(1,0,0,1,-853,-135)"></path></svg>